<?xml version="1.0" encoding="us-ascii" standalone="no"?><svg xmlns="http://www.w3.org/2000/svg" xmlns:xlink="http://www.w3.org/1999/xlink" contentStyleType="text/css" height="381px" preserveAspectRatio="none" style="width:741px;height:381px;background:#FFFFFF;" version="1.1" viewBox="0 0 741 381" width="741px" zoomAndPan="magnify"><defs/><g><!--cluster 6ebb7423072c5943f52c11274fd71b0b--><g id="cluster_6ebb7423072c5943f52c11274fd71b0b"><polygon fill="none" points="16,16,26,6,342,6,342,163.49,332,173.49,16,173.49,16,16" style="stroke:#181818;stroke-width:1.0;"/><line style="stroke:#181818;stroke-width:1.0;" x1="332" x2="342" y1="16" y2="6"/><line style="stroke:#181818;stroke-width:1.0;" x1="16" x2="332" y1="16" y2="16"/><line style="stroke:#181818;stroke-width:1.0;" x1="332" x2="332" y1="16" y2="173.49"/><text fill="#000000" font-family="sans-serif" font-size="14" font-weight="bold" lengthAdjust="spacing" textLength="83" x="133.5" y="31.9951">Dynamodb</text></g><!--cluster ba39a5f0aa547715c4df694144393752--><g id="cluster_ba39a5f0aa547715c4df694144393752"><polygon fill="none" points="366,16,376,6,724,6,724,163.49,714,173.49,366,173.49,366,16" style="stroke:#181818;stroke-width:1.0;"/><line style="stroke:#181818;stroke-width:1.0;" x1="714" x2="724" y1="16" y2="6"/><line style="stroke:#181818;stroke-width:1.0;" x1="366" x2="714" y1="16" y2="16"/><line style="stroke:#181818;stroke-width:1.0;" x1="714" x2="714" y1="16" y2="173.49"/><text fill="#000000" font-family="sans-serif" font-size="14" font-weight="bold" lengthAdjust="spacing" textLength="92" x="495" y="31.9951">Apigateway</text></g><!--cluster 04a7da3c5b04cad85da1eebb92315b8b--><g id="cluster_04a7da3c5b04cad85da1eebb92315b8b"><polygon fill="none" points="383,207.49,393,197.49,707,197.49,707,354.97,697,364.97,383,364.97,383,207.49" style="stroke:#181818;stroke-width:1.0;"/><line style="stroke:#181818;stroke-width:1.0;" x1="697" x2="707" y1="207.49" y2="197.49"/><line style="stroke:#181818;stroke-width:1.0;" x1="383" x2="697" y1="207.49" y2="207.49"/><line style="stroke:#181818;stroke-width:1.0;" x1="697" x2="697" y1="207.49" y2="364.97"/><text fill="#000000" font-family="sans-serif" font-size="14" font-weight="bold" lengthAdjust="spacing" textLength="61" x="510.5" y="223.4851">Lambda</text></g><!--entity 15b997978efb296ed09ea1d3347506b2--><g id="elem_15b997978efb296ed09ea1d3347506b2"><rect fill="#F1F1F1" height="111.4844" rx="2.5" ry="2.5" style="stroke:#181818;stroke-width:0.5;" width="294" x="32" y="46"/><rect fill="#F1F1F1" height="10" style="stroke:#181818;stroke-width:0.5;" width="15" x="306" y="51"/><rect fill="#F1F1F1" height="2" style="stroke:#181818;stroke-width:0.5;" width="4" x="304" y="53"/><rect fill="#F1F1F1" height="2" style="stroke:#181818;stroke-width:0.5;" width="4" x="304" y="57"/><text fill="#000000" font-family="sans-serif" font-size="14" font-weight="bold" lengthAdjust="spacing" textLength="226" x="47" y="78.9951">dynamodb_ProductInventory</text><text fill="#000000" font-family="sans-serif" font-size="14" lengthAdjust="spacing" textLength="4" x="47" y="95.292">&#160;</text><text fill="#000000" font-family="sans-serif" font-size="14" lengthAdjust="spacing" textLength="232" x="47" y="111.5889">terraform name: ProductInventory</text><text fill="#000000" font-family="sans-serif" font-size="14" lengthAdjust="spacing" textLength="254" x="47" y="127.8857">terraform type: aws_dynamodb_table</text><text fill="#000000" font-family="sans-serif" font-size="14" lengthAdjust="spacing" textLength="4" x="47" y="144.1826">&#160;</text></g><!--entity 13df8a11bdb0a9b943778d0044eb8bee--><g id="elem_13df8a11bdb0a9b943778d0044eb8bee"><rect fill="#F1F1F1" height="111.4844" rx="2.5" ry="2.5" style="stroke:#181818;stroke-width:0.5;" width="325" x="382.5" y="46"/><rect fill="#F1F1F1" height="10" style="stroke:#181818;stroke-width:0.5;" width="15" x="687.5" y="51"/><rect fill="#F1F1F1" height="2" style="stroke:#181818;stroke-width:0.5;" width="4" x="685.5" y="53"/><rect fill="#F1F1F1" height="2" style="stroke:#181818;stroke-width:0.5;" width="4" x="685.5" y="57"/><text fill="#000000" font-family="sans-serif" font-size="14" font-weight="bold" lengthAdjust="spacing" textLength="210" x="397.5" y="78.9951">apigateway_serverless-api</text><text fill="#000000" font-family="sans-serif" font-size="14" lengthAdjust="spacing" textLength="4" x="397.5" y="95.292">&#160;</text><text fill="#000000" font-family="sans-serif" font-size="14" lengthAdjust="spacing" textLength="213" x="397.5" y="111.5889">terraform name: serverless_api</text><text fill="#000000" font-family="sans-serif" font-size="14" lengthAdjust="spacing" textLength="285" x="397.5" y="127.8857">terraform type: aws_api_gateway_rest_api</text><text fill="#000000" font-family="sans-serif" font-size="14" lengthAdjust="spacing" textLength="4" x="397.5" y="144.1826">&#160;</text></g><!--entity 09411895fcea68c9af97769a9760c3b5--><g id="elem_09411895fcea68c9af97769a9760c3b5"><rect fill="#F1F1F1" height="111.4844" rx="2.5" ry="2.5" style="stroke:#181818;stroke-width:0.5;" width="293" x="398.5" y="237.49"/><rect fill="#F1F1F1" height="10" style="stroke:#181818;stroke-width:0.5;" width="15" x="671.5" y="242.49"/><rect fill="#F1F1F1" height="2" style="stroke:#181818;stroke-width:0.5;" width="4" x="669.5" y="244.49"/><rect fill="#F1F1F1" height="2" style="stroke:#181818;stroke-width:0.5;" width="4" x="669.5" y="248.49"/><text fill="#000000" font-family="sans-serif" font-size="14" font-weight="bold" lengthAdjust="spacing" textLength="176" x="413.5" y="270.4851">lambda_serverless-api</text><text fill="#000000" font-family="sans-serif" font-size="14" lengthAdjust="spacing" textLength="4" x="413.5" y="286.782">&#160;</text><text fill="#000000" font-family="sans-serif" font-size="14" lengthAdjust="spacing" textLength="228" x="413.5" y="303.0789">terraform name: lambda_function</text><text fill="#000000" font-family="sans-serif" font-size="14" lengthAdjust="spacing" textLength="253" x="413.5" y="319.3757">terraform type: aws_lambda_function</text><text fill="#000000" font-family="sans-serif" font-size="14" lengthAdjust="spacing" textLength="4" x="413.5" y="335.6726">&#160;</text></g><!--link 13df8a11bdb0a9b943778d0044eb8bee to 09411895fcea68c9af97769a9760c3b5--><g id="link_13df8a11bdb0a9b943778d0044eb8bee_09411895fcea68c9af97769a9760c3b5"><path codeLine="29" d="M545,157.8 C545,182.72 545,212.1 545,237.03 " fill="none" id="13df8a11bdb0a9b943778d0044eb8bee-09411895fcea68c9af97769a9760c3b5" style="stroke:#181818;stroke-width:1.0;"/></g><!--SRC=[ZT51QyCW5C3nUpw5x1WeQDGOTnliCjXXzp72U_eiWIGMaxOhOzzz4hgkX49tbRyl_lAWx-Dnw3wxSLkCqHDxU3wDC4IF3mmcLXEYKPNafdBQAXbqvOIeZ0hU2EJ8lWhcuh2B8uqp4ngjDTOq5B2oDNbk2OINKXdDQwpOUr6M_Zo_VKlHxztyCXxotPXEPLaKCwK48QQ1vOWUsRgv2kRJBWTmdDhBn1cmfwBuABxFbgTTjuMPZd1QD0ZIWWuSG2jZX7RAXzegePIqqkXgfP4-D204UkHWCUkDQJpdIX4sIBHeuFA5Tg9qeDJJD6towItDNz7cugObdxU_0nDDyn9UYLvXG0-BXYim7gJJo9K3tsWFWlA-R2Np8fhLRdXsYiRgu0Zgnba8rfZQWZKrTnBrekcNwV-GdCEm7ztSnV4cPTqiYhi_TUCtTz_w0m00]--></g></svg>